<svg width="70" height="66" viewBox="0 0 70 66" fill="none" xmlns="http://www.w3.org/2000/svg">
<path d="M61.5725 52.8675L58.8427 51.9397C60.3709 50.755 61.3537 48.9248 61.3537 46.8729V44.9144C61.3537 41.351 58.3918 38.4517 54.7515 38.4517C51.1111 38.4517 48.1493 41.351 48.1493 44.9144V46.8729C48.1493 48.9248 49.1326 50.755 50.6607 51.9397L47.9305 52.8675C46.1795 53.4629 44.7075 54.5547 43.6535 55.9471H36.279V53.0983C36.279 49.3485 33.8474 46.0027 30.2288 44.773L27.4985 43.8453C29.0267 42.6605 30.01 40.8303 30.01 38.7784V36.82C30.01 33.256 27.0481 30.3572 23.4078 30.3572C19.7675 30.3572 16.8056 33.2565 16.8056 36.82V38.7784C16.8056 40.8303 17.7889 42.6605 19.3166 43.8453L16.5868 44.773C12.9682 46.0027 10.5366 49.3485 10.5366 53.0983V55.9471H1.00037C0.447818 55.9471 0 56.3854 0 56.9263V65.0208C0 65.5616 0.447818 66 1.00037 66H42.6145C42.6593 66 42.7037 65.996 42.7476 65.9904C42.7914 65.996 42.8358 66 42.8812 66H66.6223C67.1748 66 67.6226 65.5616 67.6226 65.0208V61.1927C67.6226 57.4435 65.1916 54.0977 61.5725 52.8675ZM50.15 44.9144C50.15 42.4307 52.2142 40.4101 54.7515 40.4101C57.2888 40.4101 59.353 42.4307 59.353 44.9144V46.8729C59.353 49.3566 57.2888 51.3772 54.7515 51.3772C52.2142 51.3772 50.15 49.3566 50.15 46.8729V44.9144ZM18.8063 36.82C18.8063 34.3363 20.8705 32.3157 23.4078 32.3157C25.9451 32.3157 28.0093 34.3363 28.0093 36.82V38.7784C28.0093 41.2621 25.9451 43.2827 23.4078 43.2827C20.8705 43.2827 18.8063 41.2621 18.8063 38.7784V36.82ZM25.5066 45.2412L26.4786 45.5714L23.4078 50.7868L20.337 45.5714L21.309 45.2412H25.5066ZM12.5374 53.0983C12.5374 50.1818 14.4287 47.5794 17.2431 46.6229L18.4132 46.2254L22.5411 53.2371C22.7196 53.5407 23.0503 53.7275 23.4078 53.7275C23.7653 53.7275 24.096 53.5407 24.2745 53.2371L28.4024 46.2254L29.5725 46.6229C32.3869 47.5794 34.2777 50.1818 34.2777 53.0983V55.9471H12.5374V53.0983ZM2.00074 57.9055H42.5324C42.1104 58.9302 41.8808 60.0423 41.8808 61.1927V64.0415H2.00074V57.9055ZM65.6219 64.0415H43.8816V61.1927C43.8816 58.2762 45.7724 55.6744 48.5868 54.7174L52.6527 53.3356H56.8502L60.9162 54.7174C63.7311 55.6744 65.6219 58.2762 65.6219 61.1927V64.0415Z" fill="#BA206B"/>
<path d="M63.6645 7.05007H53.5029C52.9504 7.05007 52.5026 7.48893 52.5026 8.02931C52.5026 8.57018 52.9504 9.00854 53.5029 9.00854H63.6645C66.0548 9.00854 67.9993 10.912 67.9993 13.2522V26.8302C67.9993 29.1699 66.0548 31.0733 63.6645 31.0733H49.9266C49.374 31.0733 48.9262 31.5117 48.9262 32.0526V36.217L43.9651 31.3602C43.7773 31.1764 43.523 31.0733 43.2578 31.0733H35.1218C32.7315 31.0733 30.7865 29.1699 30.7865 26.8302V13.2517C30.7865 10.912 32.731 9.00854 35.1218 9.00854H53.7547C54.3073 9.00854 54.7551 8.57018 54.7551 8.02931C54.7551 7.48843 54.3073 7.05007 53.7547 7.05007H43.5911V6.20164C43.5911 2.78215 40.7489 0 37.2556 0H8.71285C5.21956 0 2.37736 2.78215 2.37736 6.20164L2.37736 12.9199C2.37736 13.4608 2.82518 13.8991 3.37773 13.8991C3.93028 13.8991 4.3781 13.4608 4.3781 12.9199L4.3781 6.20164C4.3781 3.86188 6.3226 1.95847 8.71285 1.95847H37.2556C39.6459 1.95847 41.5904 3.86188 41.5904 6.20164V7.05007H35.1218C31.6285 7.05007 28.7863 9.83223 28.7863 13.2517V24.0228H18.3162C17.7636 24.0228 17.3158 24.4611 17.3158 25.002V29.1664L12.3547 24.3096C12.1669 24.1258 11.9126 24.0228 11.6474 24.0228H8.71285C6.3226 24.0228 4.3781 22.1194 4.3781 19.7796L4.3781 12.9199C4.3781 12.379 3.93028 11.9407 3.37773 11.9407C2.82518 11.9407 2.37736 12.379 2.37736 12.9199L2.37736 19.7796C2.37736 23.1996 5.21956 25.9812 8.71285 25.9812H11.2326L17.6089 32.2228C17.8003 32.4101 18.0562 32.5096 18.3162 32.5091C18.4452 32.5091 18.5752 32.4849 18.699 32.4349C19.0725 32.2834 19.3166 31.9263 19.3166 31.5304V25.9812H28.7863V26.8302C28.7863 30.2497 31.6285 33.0313 35.1218 33.0313H42.8435L49.2193 39.2728C49.4107 39.4602 49.6666 39.5597 49.9266 39.5597C50.0556 39.5597 50.1856 39.5355 50.3094 39.485C50.6829 39.3335 50.927 38.9764 50.927 38.5805V33.0313H63.6645C67.1578 33.0313 70 30.2497 70 26.8302V13.2517C70 9.83223 67.1578 7.05007 63.6645 7.05007Z" fill="#BA206B"/>
</svg>
