<svg width="70" height="70" viewBox="0 0 70 70" fill="none" xmlns="http://www.w3.org/2000/svg">
<path d="M40.4903 14.1948C42.1295 12.7003 43.1667 10.5548 43.1667 8.16667C43.1667 3.6645 39.5033 0 35 0C30.4967 0 26.8333 3.6645 26.8333 8.16667C26.8333 10.5548 27.8705 12.7003 29.5097 14.1948C24.6692 15.1282 21 19.3912 21 24.5V29.1667C21 29.8118 21.5227 30.3333 22.1667 30.3333H47.8333C48.4773 30.3333 49 29.8118 49 29.1667V24.5C49 19.3912 45.3308 15.1282 40.4903 14.1948ZM29.1667 8.16667C29.1667 4.95017 31.7835 2.33333 35 2.33333C38.2165 2.33333 40.8333 4.95017 40.8333 8.16667C40.8333 11.3832 38.2165 14 35 14C31.7835 14 29.1667 11.3832 29.1667 8.16667ZM46.6667 28H23.3333V24.5C23.3333 19.9978 26.9967 16.3333 31.5 16.3333H38.5C43.0033 16.3333 46.6667 19.9978 46.6667 24.5V28Z" fill="#BA206B"/>
<path d="M19.4903 53.8615C21.1295 52.367 22.1667 50.2215 22.1667 47.8333C22.1667 43.3312 18.5033 39.6667 14 39.6667C9.49667 39.6667 5.83333 43.3312 5.83333 47.8333C5.83333 50.2215 6.8705 52.367 8.50967 53.8615C3.66917 54.7948 0 59.0578 0 64.1667V68.8333C0 69.4785 0.522667 70 1.16667 70H26.8333C27.4773 70 28 69.4785 28 68.8333V64.1667C28 59.0578 24.3308 54.7948 19.4903 53.8615ZM8.16667 47.8333C8.16667 44.6168 10.7835 42 14 42C17.2165 42 19.8333 44.6168 19.8333 47.8333C19.8333 51.0498 17.2165 53.6667 14 53.6667C10.7835 53.6667 8.16667 51.0498 8.16667 47.8333ZM25.6667 67.6667H2.33333V64.1667C2.33333 59.6645 5.99667 56 10.5 56H17.5C22.0033 56 25.6667 59.6645 25.6667 64.1667V67.6667Z" fill="#BA206B"/>
<path d="M61.4903 53.8615C63.1295 52.367 64.1667 50.2215 64.1667 47.8333C64.1667 43.3312 60.5033 39.6667 56 39.6667C51.4967 39.6667 47.8333 43.3312 47.8333 47.8333C47.8333 50.2215 48.8705 52.367 50.5097 53.8615C45.6692 54.7948 42 59.0578 42 64.1667V68.8333C42 69.4785 42.5227 70 43.1667 70H68.8333C69.4773 70 70 69.4785 70 68.8333V64.1667C70 59.0578 66.3308 54.7948 61.4903 53.8615ZM50.1667 47.8333C50.1667 44.6168 52.7835 42 56 42C59.2165 42 61.8333 44.6168 61.8333 47.8333C61.8333 51.0498 59.2165 53.6667 56 53.6667C52.7835 53.6667 50.1667 51.0498 50.1667 47.8333ZM67.6667 67.6667H44.3333V64.1667C44.3333 59.6645 47.9967 56 52.5 56H59.5C64.0033 56 67.6667 59.6645 67.6667 64.1667V67.6667Z" fill="#BA206B"/>
<path d="M7.02216 37.296L4.69116 37.387C4.72266 38.1908 4.78683 39.0051 4.8825 39.8055L7.1995 39.5278C7.11083 38.7893 7.05133 38.038 7.02216 37.296Z" fill="#BA206B"/>
<path d="M4.88133 32.5465C4.78683 33.3422 4.7215 34.1553 4.69116 34.9638L7.02216 35.0548C7.05133 34.3082 7.11083 33.558 7.19833 32.8218L4.88133 32.5465Z" fill="#BA206B"/>
<path d="M16.6122 12.0377C15.974 12.5242 15.3451 13.0445 14.742 13.5858L16.3018 15.3218C16.8572 14.8225 17.437 14.3418 18.0262 13.8938L16.6122 12.0377Z" fill="#BA206B"/>
<path d="M7.54481 23.2517C7.20181 23.9808 6.88448 24.7322 6.59981 25.4893L8.78381 26.3095C9.04631 25.6118 9.33914 24.9188 9.65531 24.248L7.54481 23.2517Z" fill="#BA206B"/>
<path d="M5.83682 27.7935C5.61515 28.5647 5.42265 29.3592 5.26282 30.1502L7.55065 30.611C7.69765 29.8818 7.87498 29.1492 8.08032 28.4363L5.83682 27.7935Z" fill="#BA206B"/>
<path d="M13.0048 15.2798C12.446 15.8678 11.9093 16.4803 11.4053 17.1021L13.2195 18.5698C13.6838 17.9958 14.1808 17.4288 14.6965 16.8863L13.0048 15.2798Z" fill="#BA206B"/>
<path d="M20.6885 9.41615C19.9826 9.79298 19.2791 10.2071 18.5955 10.647L19.8601 12.6093C20.4901 12.2021 21.1388 11.8206 21.7875 11.4741L20.6885 9.41615Z" fill="#BA206B"/>
<path d="M9.95631 19.0458C9.50014 19.712 9.06614 20.4027 8.66597 21.1015L10.6901 22.2612C11.0588 21.6172 11.4601 20.979 11.8813 20.3653L9.95631 19.0458Z" fill="#BA206B"/>
<path d="M29.4723 63.6207L29.0114 65.9085C29.7966 66.0672 30.6039 66.1943 31.4101 66.2888L31.6808 63.9718C30.9399 63.8843 30.1956 63.7665 29.4723 63.6207Z" fill="#BA206B"/>
<path d="M40.6012 63.6067C39.8767 63.7537 39.1335 63.8738 38.3892 63.9648L38.6704 66.2818C39.4754 66.1838 40.2804 66.0532 41.0644 65.8945L40.6012 63.6067Z" fill="#BA206B"/>
<path d="M36.1585 64.1433C35.413 64.1725 34.6594 64.176 33.9185 64.1468L33.8264 66.4778C34.2149 66.4942 34.6069 66.5012 35.0035 66.5012C35.4212 66.4988 35.8377 66.4907 36.2519 66.4743L36.1585 64.1433Z" fill="#BA206B"/>
<path d="M55.2626 13.5952L53.704 15.3312C54.2593 15.8305 54.7983 16.3555 55.3081 16.8922L57.0021 15.288C56.4491 14.7047 55.8646 14.1354 55.2626 13.5952Z" fill="#BA206B"/>
<path d="M58.5993 17.1091L56.7851 18.5768C57.2506 19.152 57.701 19.7575 58.1233 20.3735L60.0471 19.054C59.5898 18.3878 59.1033 17.7333 58.5993 17.1091Z" fill="#BA206B"/>
<path d="M65.3088 34.9673L62.9778 35.0583C62.9929 35.4258 63 35.7968 63 36.1666C63 36.5458 62.9929 36.9226 62.9778 37.2995L65.3088 37.3905C65.3251 36.9845 65.3333 36.5761 65.3333 36.1643C65.3333 35.7641 65.3251 35.364 65.3088 34.9673Z" fill="#BA206B"/>
<path d="M61.3386 21.1073L59.3133 22.2681C59.6831 22.9133 60.0308 23.5818 60.3481 24.2538L62.4586 23.2575C62.1156 22.5295 61.7388 21.8061 61.3386 21.1073Z" fill="#BA206B"/>
<path d="M63.4025 25.494L61.2185 26.3153C61.4799 27.0107 61.7155 27.7258 61.9209 28.4398L64.1644 27.797C63.9427 27.0223 63.686 26.2477 63.4025 25.494Z" fill="#BA206B"/>
<path d="M64.7359 30.1548L62.4493 30.6145C62.5963 31.3448 62.7153 32.0891 62.8016 32.8265L65.1186 32.5511C65.0241 31.7531 64.8958 30.947 64.7359 30.1548Z" fill="#BA206B"/>
<path d="M51.4115 10.6517L50.148 12.614C50.771 13.0153 51.387 13.4482 51.9808 13.902L53.3972 12.0458C52.7543 11.5547 52.087 11.0868 51.4115 10.6517Z" fill="#BA206B"/>
<path d="M47.138 8.36035L46.2035 10.4977C46.8837 10.7952 47.5604 11.1242 48.2172 11.4765L49.3209 9.42085C48.6104 9.03819 47.8754 8.68118 47.138 8.36035Z" fill="#BA206B"/>
</svg>
