<svg width="68" height="57" viewBox="0 0 68 57" fill="none" xmlns="http://www.w3.org/2000/svg">
<path d="M64.5486 50.2352H63.3002V49.0117C63.3002 47.1467 61.7519 45.6293 59.8488 45.6293H48.0993C46.1962 45.6293 44.6479 47.1467 44.6479 49.0117V50.2352H43.3996C41.4964 50.2352 39.9482 51.7525 39.9482 53.6176V55.9205C39.9482 56.5167 40.4413 57 41.0497 57H66.8985C67.5068 57 68 56.5167 68 55.9205V53.6176C68 51.7525 66.4517 50.2352 64.5486 50.2352ZM46.851 49.0117C46.851 48.3371 47.411 47.7883 48.0993 47.7883H59.8488C60.5372 47.7883 61.0972 48.3371 61.0972 49.0117V50.2352H46.851V49.0117ZM65.797 54.841H42.1512V53.6176C42.1512 52.943 42.7112 52.3942 43.3996 52.3942H64.5486C65.237 52.3942 65.797 52.943 65.797 53.6176V54.841Z" fill="#BA206B"/>
<path d="M42.1513 26.9942L42.0993 27.0452C40.7536 28.3641 40.7536 30.5098 42.0993 31.8285C42.7511 32.4673 43.618 32.8192 44.5399 32.8192C45.4617 32.8192 46.3284 32.4673 46.9804 31.8285L53.6269 25.315C54.2787 24.6762 54.6378 23.8267 54.6378 22.9233C54.6378 22.0198 54.2787 21.1703 53.6269 20.5315C52.9751 19.8928 52.1083 19.5408 51.1864 19.5408C50.2645 19.5408 49.3977 19.8928 48.7459 20.5315L48.694 20.5825L46.1391 18.0785C46.359 17.3241 46.1673 16.4778 45.5622 15.8848L38.429 8.89416C37.8239 8.30116 36.9603 8.11333 36.1905 8.32894L33.6355 5.82509L33.6873 5.77414C34.3391 5.13537 34.6982 4.28588 34.6982 3.38241C34.6982 2.47895 34.3391 1.6296 33.6873 0.990687C33.0355 0.351915 32.1687 0 31.2468 0C30.3249 0 29.4581 0.351915 28.8063 0.990687L22.1599 7.50435C21.5081 8.14312 21.149 8.99261 21.149 9.89608C21.149 10.7995 21.5081 11.649 22.1599 12.2878C22.8327 12.9473 23.7166 13.2769 24.6004 13.2769C25.4843 13.2769 26.3681 12.9472 27.0409 12.2878L27.0929 12.2369L29.6473 14.7401C29.5894 14.9383 29.5581 15.1452 29.5581 15.357C29.5581 15.953 29.7949 16.5132 30.2249 16.9345L30.5201 17.2238L28.2364 19.462C27.5077 20.1762 27.1771 21.1326 27.2376 22.0692L1.01089 47.7715C0.359093 48.4103 0 49.2596 0 50.1632C0 51.0668 0.359093 51.9162 1.01089 52.5549C1.6627 53.1937 2.52951 53.5456 3.4514 53.5456C4.3733 53.5456 5.24011 53.1937 5.89191 52.5549L32.1185 26.8526C32.1918 26.8571 32.265 26.8628 32.3383 26.8628C33.222 26.8628 34.106 26.5331 34.7788 25.8737L37.0626 23.6357L37.3578 23.925C37.7879 24.3465 38.3595 24.5786 38.9675 24.5786C39.1837 24.5786 39.3948 24.548 39.597 24.4913L42.1513 26.9942ZM51.1864 21.7004C51.5061 21.7004 51.8258 21.8197 52.0692 22.0582C52.3049 22.2892 52.4349 22.5964 52.4349 22.9233C52.4349 23.2501 52.3051 23.5573 52.0692 23.7884L45.4227 30.302C44.9358 30.7791 44.1439 30.779 43.6572 30.302C43.1705 29.825 43.1705 29.0487 43.6572 28.5717L50.3037 22.0581C50.5471 21.8196 50.8666 21.7004 51.1864 21.7004ZM43.7092 25.4677L41.3562 23.1618L44.7834 19.8031L47.1363 22.109L43.7092 25.4677ZM23.7178 10.7611C23.231 10.2841 23.231 9.50789 23.7178 9.0309L30.3641 2.51723C30.5999 2.28622 30.9134 2.15884 31.247 2.15884C31.5805 2.15884 31.8939 2.28608 32.1296 2.51723C32.6164 2.99423 32.6164 3.77045 32.1296 4.24745L25.4831 10.7611C24.9964 11.238 24.2045 11.238 23.7178 10.7611ZM32.0778 7.3515L34.4308 9.65744L31.0036 13.0161L28.6506 10.7102L32.0778 7.3515ZM4.33408 51.0282C4.09836 51.2592 3.78494 51.3866 3.4514 51.3866C3.11787 51.3866 2.80445 51.2594 2.56873 51.0282C2.333 50.7972 2.20302 50.4901 2.20302 50.1632C2.20302 49.8363 2.33286 49.5292 2.56873 49.2982L28.187 24.1919C28.204 24.2093 28.2187 24.2282 28.2363 24.2454L29.8978 25.8737C29.9153 25.8909 29.9345 25.9053 29.9525 25.9221L4.33408 51.0282ZM33.2212 24.347C32.7344 24.824 31.9425 24.824 31.4557 24.347L29.7941 22.7187C29.3074 22.2417 29.3074 21.4655 29.7941 20.9885L32.0778 18.7504L35.505 22.109L33.2212 24.347ZM31.7824 15.4078C31.7771 15.4026 31.761 15.3868 31.761 15.357C31.761 15.3272 31.7771 15.3112 31.7824 15.3061L36.7673 10.4209C36.7817 10.4069 36.8005 10.3998 36.8193 10.3998C36.8381 10.3998 36.8569 10.4069 36.8713 10.4209L44.0044 17.4114C44.033 17.4394 44.033 17.4852 44.0044 17.5133L39.0195 22.3985C39.0142 22.4037 38.9979 22.4195 38.9675 22.4195C38.9371 22.4195 38.921 22.4037 38.9155 22.3985L31.7824 15.4078Z" fill="#BA206B"/>
</svg>
