<svg width="60" height="72" viewBox="0 0 60 72" fill="none" xmlns="http://www.w3.org/2000/svg">
<path d="M0.201187 59.9133L10.5205 41.4279C9.47461 40.9302 8.84708 39.7926 8.91681 38.5129L9.68378 31.9719L5.29111 27.2794C4.31496 26.284 4.24524 24.5777 5.22139 23.369L9.61406 18.5343L8.70764 11.9222C8.56819 10.5003 9.54434 9.07832 10.9388 8.79393L17.2838 7.51416L20.3517 1.75523C20.9792 0.40437 22.5132 -0.164414 23.9077 0.40437H23.9774L29.8343 3.17719L35.5518 0.333272C36.1793 -0.0222181 36.9463 -0.0933161 37.6435 0.119978C38.3408 0.333272 38.8986 0.830957 39.2472 1.47084L42.3848 7.22977L48.7298 8.36734C50.194 8.65173 51.1701 10.0026 51.0307 11.5667L50.2637 18.1078L54.6564 22.8002C55.6325 23.7956 55.7023 25.5019 54.7261 26.7106L50.3334 31.5453L51.2399 38.1574C51.3793 39.4371 50.6124 40.6458 49.427 41.1435L59.816 59.9133C60.0949 60.3399 60.0252 60.9087 59.816 61.3353C59.5371 61.7619 59.1188 62.0463 58.6307 62.0463H47.4747L42.3848 71.0757C42.1059 71.5023 41.6876 71.7867 41.1995 71.7867C40.7114 71.7867 40.2233 71.5023 40.0142 71.0757L30.0435 53.7278L20.0728 71.289C19.7939 71.7156 19.3756 72 18.8875 72C18.3994 72 17.9113 71.7156 17.7022 71.289L12.6122 62.0463H1.45624C0.968166 62.0463 0.480087 61.7619 0.270912 61.3353C-0.077713 60.9087 -0.077713 60.3399 0.201187 59.9133ZM41.1298 67.5208L45.4527 59.9133C45.7316 59.4868 46.15 59.2024 46.638 59.2024H56.2601L46.638 41.8545L42.6637 42.5654L39.5958 48.3244C38.9683 49.6752 37.4343 50.244 36.0398 49.6752H35.9701L33.1114 48.3244L31.7169 50.8128L41.1298 67.5208ZM37.0857 47.1157C37.1554 47.1157 37.1554 47.1157 37.1554 47.1157L40.2233 41.2146C40.6417 40.5036 41.3389 39.9348 42.1756 39.8637L48.5903 38.6551L47.6839 32.1141C47.5445 31.2609 47.8233 30.3366 48.3812 29.7678L52.7041 24.9332L48.3114 20.2407C47.6839 19.6008 47.405 18.7476 47.5444 17.8945L48.3114 11.4246C48.3114 11.4246 48.3114 11.3535 48.2417 11.2824L41.8967 10.1448C41.1298 10.0026 40.3628 9.50491 39.9444 8.72283L36.8068 2.9639L31.0894 5.80781C30.3224 6.2344 29.3462 6.2344 28.5793 5.80781L22.7921 3.10609C22.7224 3.10609 22.7224 3.10609 22.7224 3.10609L19.6545 9.00722C19.2361 9.7182 18.5389 10.287 17.7719 10.3581L11.4269 11.6378L12.3333 18.1789C12.4728 19.032 12.1939 19.9563 11.6361 20.5251L7.24341 25.3597L11.7058 30.0522C12.3333 30.6921 12.6122 31.5453 12.4728 32.3984L11.7058 38.9395L17.9811 40.0059C18.748 40.1481 19.515 40.6458 19.9334 41.4279L23.071 47.1868L28.7884 44.3429C29.5554 43.9163 30.5316 43.9163 31.2985 44.3429L37.0857 47.1157ZM13.3792 59.2024C13.8673 59.2024 14.3554 59.4868 14.5645 59.9133L18.8875 67.7341L28.7187 50.3862C28.7884 50.1729 28.8582 50.0307 28.9976 49.8885L30.5316 47.1157L30.0435 46.9024L24.326 49.7463C23.9077 49.9596 23.4893 50.0307 23.071 50.0307C22.0948 50.0307 21.1187 49.533 20.6306 48.6088L17.493 42.8498L13.3095 42.0678L3.75716 59.2024H13.3792Z" fill="#BA206B"/>
<path d="M16.0985 25.0753C16.0985 17.2546 22.3737 10.8558 30.0435 10.8558C37.7132 10.8558 43.9884 17.2546 43.9884 25.0753C43.9884 32.8961 37.7132 39.2949 30.0435 39.2949C22.3737 39.2949 16.0985 32.8961 16.0985 25.0753ZM30.0435 36.451C36.1792 36.451 41.1994 31.332 41.1994 25.0753C41.1994 18.8187 36.1792 13.6997 30.0435 13.6997C23.9077 13.6997 18.8875 18.8187 18.8875 25.0753C18.8875 31.332 23.9077 36.451 30.0435 36.451Z" fill="#BA206B"/>
</svg>
