<svg width="52" height="70" viewBox="0 0 52 70" fill="none" xmlns="http://www.w3.org/2000/svg">
<path d="M48.5185 2.41901H18.8148V2.34341C18.8148 1.05121 17.7847 0 16.5185 0H9.40741C8.14118 0 7.11111 1.05121 7.11111 2.34341V2.41901H3.48148C1.56178 2.41901 0 4.01283 0 5.97192V66.4471C0 68.4062 1.56178 70 3.48148 70H48.5185C50.4382 70 52 68.4062 52 66.4471V5.97192C52 4.01283 50.4382 2.41901 48.5185 2.41901ZM9.33333 2.34341C9.33333 2.30168 9.36667 2.26782 9.40741 2.26782H16.5185C16.5593 2.26782 16.5926 2.30168 16.5926 2.34341V16.2323L13.4599 14.6338C13.3036 14.554 13.1332 14.514 12.963 14.514C12.7927 14.514 12.6224 14.554 12.4661 14.6338L9.33333 16.2323V2.34341ZM49.7778 66.4471C49.7778 67.1557 49.2129 67.7322 48.5185 67.7322H3.48148C2.78711 67.7322 2.22222 67.1557 2.22222 66.4471V5.97192C2.22222 5.2633 2.78711 4.68683 3.48148 4.68683H7.11111V18.067C7.11111 18.4599 7.31052 18.8249 7.63807 19.0315C7.96593 19.2384 8.37496 19.257 8.71926 19.0811L12.9631 16.9157L17.207 19.0811C17.3639 19.1611 17.5341 19.2009 17.7039 19.2009C17.907 19.2009 18.1095 19.144 18.288 19.0315C18.6156 18.8249 18.815 18.4599 18.815 18.067V4.68683H48.5187C49.213 4.68683 49.7779 5.2633 49.7779 5.97192V66.4471H49.7778Z" fill="#BA206B"/>
<path d="M42.5141 43.377C42.5133 43.3664 42.513 43.3557 42.512 43.3453C42.5096 43.3226 42.5056 43.3001 42.5019 43.2775C42.4994 43.262 42.4973 43.2464 42.4942 43.2311C42.4911 43.2162 42.4867 43.2012 42.483 43.1862C42.4773 43.1638 42.472 43.1413 42.465 43.1194C42.4619 43.1097 42.4581 43.1 42.4547 43.0904C42.4455 43.0638 42.436 43.0375 42.425 43.0119C42.4241 43.0099 42.4237 43.008 42.4228 43.006L37.7778 32.3405V31.2959H39.037C39.6508 31.2959 40.1481 30.7882 40.1481 30.162C40.1481 29.5358 39.6508 29.0281 39.037 29.0281H27.1111V27.4808C28.4874 27.0064 29.4815 25.6772 29.4815 24.1145C29.4815 22.1554 27.9197 20.5616 26 20.5616C24.0803 20.5616 22.5185 22.1554 22.5185 24.1145C22.5185 25.6772 23.5126 27.0064 24.8889 27.4808V29.0281H12.963C12.3492 29.0281 11.8519 29.5358 11.8519 30.162C11.8519 30.7882 12.3492 31.2959 12.963 31.2959H14.2222V32.3405L9.57719 43.006C9.5763 43.008 9.5757 43.0101 9.57496 43.0121C9.564 43.0376 9.55452 43.0638 9.54548 43.0902C9.54207 43.0999 9.53807 43.1096 9.53496 43.1194C9.528 43.1413 9.52267 43.1637 9.51704 43.1862C9.51318 43.2012 9.50889 43.2162 9.50578 43.2311C9.50267 43.2464 9.50074 43.2621 9.49807 43.2775C9.49437 43.3001 9.49037 43.3226 9.488 43.3453C9.48696 43.3557 9.48667 43.3664 9.48593 43.377C9.4837 43.4047 9.48193 43.4324 9.48178 43.46C9.48178 43.4623 9.48148 43.4644 9.48148 43.4665C9.48148 46.0925 12.1067 48.2289 15.3333 48.2289C18.56 48.2289 21.1852 46.0925 21.1852 43.4665C21.1852 43.4643 21.1849 43.4621 21.1849 43.46C21.1847 43.4324 21.183 43.4048 21.1807 43.377C21.18 43.3664 21.1797 43.3557 21.1787 43.3453C21.1763 43.3226 21.1723 43.3001 21.1686 43.2775C21.1661 43.262 21.164 43.2464 21.1609 43.2311C21.1578 43.2162 21.1533 43.2012 21.1496 43.1862C21.144 43.1638 21.1387 43.1413 21.1317 43.1194C21.1286 43.1097 21.1247 43.1 21.1213 43.0904C21.1121 43.0638 21.1027 43.0375 21.0917 43.0119C21.0908 43.0099 21.0904 43.008 21.0895 43.006L16.4444 32.3405V31.2959H24.8889V41.3097C23.5126 41.7841 22.5185 43.1133 22.5185 44.676V53.2181H20.0741C19.4603 53.2181 18.963 53.7258 18.963 54.3521C18.963 54.9783 19.4603 55.486 20.0741 55.486H31.9259C32.5397 55.486 33.037 54.9783 33.037 54.3521C33.037 53.7258 32.5397 53.2181 31.9259 53.2181H29.4815V44.676C29.4815 43.1133 28.4874 41.7841 27.1111 41.3097V31.2959H35.5556V32.3405L30.9105 43.006C30.9096 43.008 30.909 43.0101 30.9083 43.0121C30.8973 43.0376 30.8879 43.0638 30.8788 43.0902C30.8754 43.0999 30.8714 43.1096 30.8683 43.1194C30.8613 43.1413 30.856 43.1637 30.8504 43.1862C30.8465 43.2012 30.8422 43.2162 30.8391 43.2311C30.836 43.2464 30.8341 43.2621 30.8314 43.2775C30.8277 43.3001 30.8237 43.3226 30.8213 43.3453C30.8203 43.3557 30.82 43.3664 30.8193 43.377C30.817 43.4047 30.8153 43.4324 30.8151 43.46C30.8151 43.4623 30.8148 43.4644 30.8148 43.4665C30.8148 46.0925 33.44 48.2289 36.6667 48.2289C39.8933 48.2289 42.5185 46.0925 42.5185 43.4665C42.5185 43.4643 42.5182 43.4621 42.5182 43.46C42.5181 43.4324 42.5163 43.4047 42.5141 43.377ZM26 22.8294C26.6944 22.8294 27.2593 23.4059 27.2593 24.1145C27.2593 24.8231 26.6944 25.3996 26 25.3996C25.3056 25.3996 24.7407 24.8231 24.7407 24.1145C24.7407 23.4059 25.3056 22.8294 26 22.8294ZM15.3333 35.373L18.3643 42.3326H12.3022L15.3333 35.373ZM15.3333 45.9611C13.9553 45.9611 12.7271 45.4008 12.1148 44.6004H18.5517C17.9396 45.4008 16.7114 45.9611 15.3333 45.9611ZM27.2593 53.2181H24.7407V44.676C24.7407 43.9674 25.3056 43.3909 26 43.3909C26.6944 43.3909 27.2593 43.9674 27.2593 44.676V53.2181ZM36.6667 35.373L39.6976 42.3326H33.6356L36.6667 35.373ZM36.6667 45.9611C35.2886 45.9611 34.0604 45.4008 33.4481 44.6004H39.885C39.2729 45.4008 38.0447 45.9611 36.6667 45.9611Z" fill="#BA206B"/>
</svg>
