<svg width="68" height="68" viewBox="0 0 68 68" fill="none" xmlns="http://www.w3.org/2000/svg">
<path d="M65.7341 32.8665C65.2893 32.881 64.8345 33.1411 64.6587 33.5787L63.6485 36.106L61.1392 26.9015C61.0152 26.4483 60.6247 26.1185 60.1577 26.0721C59.682 26.0212 59.2427 26.2735 59.0326 26.693L55.9469 32.8665H54.2122C55.7962 29.7363 56.6472 26.2595 56.6472 22.6666C56.6472 10.1684 46.4828 0 33.9882 0C21.4937 0 11.3293 10.1684 11.3293 22.6666C11.3293 26.2608 12.1812 29.7385 13.766 32.8695L13.6184 32.8665C13.1626 32.881 12.7189 33.1411 12.543 33.5787L11.5328 36.106L9.02349 26.9015C8.89958 26.4483 8.50899 26.1185 8.04208 26.0721C7.56185 26.0212 7.12708 26.2735 6.91692 26.693L3.8312 32.8665H0V35.1332H4.53179C4.96103 35.1332 5.35275 34.8908 5.54521 34.5067L7.61751 30.3597L10.2363 39.9648C10.3646 40.4346 10.7784 40.7701 11.2653 40.7983C11.2863 40.7994 11.3085 40.8 11.3295 40.8C11.7909 40.8 12.2091 40.5195 12.3817 40.0878L14.3566 35.1489L15.1166 35.1642C15.6981 36.038 16.3232 36.8869 17.0296 37.6812C17.0606 37.8029 17.1126 37.9207 17.1845 38.0287C20.9031 43.6079 21.12 44.7639 21.765 48.1961C21.8846 48.8263 22.0161 49.5265 22.1832 50.3321C22.4716 51.7379 23.2942 52.8824 24.4022 53.5984C24.0196 54.1485 23.7919 54.8139 23.7919 55.5334C23.7919 56.7408 24.4287 57.7965 25.3796 58.3997C25.0984 58.8944 24.9248 59.4581 24.9248 60.0667C24.9248 61.2741 25.5617 62.3298 26.5125 62.933C26.2314 63.4277 26.0578 63.9914 26.0578 64.6C26.0578 66.4748 27.5824 68 29.4566 68H38.5202C40.3943 68 41.919 66.4748 41.919 64.6C41.919 63.9914 41.7454 63.4279 41.4643 62.933C42.4151 62.3297 43.052 61.2741 43.052 60.0667C43.052 59.4581 42.8783 58.8946 42.5972 58.3997C43.548 57.7964 44.1849 56.7408 44.1849 55.5334C44.1849 54.8139 43.9573 54.1486 43.5747 53.5985C44.6827 52.8828 45.5052 51.7391 45.7935 50.3349C45.9607 49.5265 46.0922 48.8265 46.2117 48.1961C46.8568 44.7639 47.0736 43.6079 50.7922 38.0287C50.8642 37.9207 50.9162 37.8029 50.9472 37.6812C51.6619 36.8775 52.294 36.0185 52.8808 35.1335H56.6473C57.0766 35.1335 57.4683 34.8911 57.6607 34.507L59.733 30.36L62.3518 39.9651C62.4801 40.4349 62.894 40.7704 63.3808 40.7986C63.4018 40.7997 63.424 40.8003 63.445 40.8003C63.9064 40.8003 64.3246 40.5198 64.4972 40.0881L66.4721 35.1492L67.9536 35.1791L68 32.9124L65.7341 32.8665ZM38.5202 65.7331H29.4566C28.8315 65.7331 28.3237 65.2245 28.3237 64.5997C28.3237 63.975 28.8315 63.4664 29.4566 63.4664H38.5202C39.1453 63.4664 39.6531 63.975 39.6531 64.5997C39.6531 65.2245 39.1453 65.7331 38.5202 65.7331ZM39.6531 61.1997H38.5202H29.4566H28.3237C27.6986 61.1997 27.1907 60.6912 27.1907 60.0664C27.1907 59.4417 27.6986 58.9331 28.3237 58.9331H39.6531C40.2782 58.9331 40.7861 59.4417 40.7861 60.0664C40.7861 60.6912 40.2782 61.1997 39.6531 61.1997ZM40.7861 56.6664H39.6531H28.3237H27.1907C26.5656 56.6664 26.0578 56.1578 26.0578 55.5331C26.0578 54.9084 26.5656 54.3998 27.1907 54.3998H40.7861C41.4112 54.3998 41.919 54.9084 41.919 55.5331C41.919 56.1578 41.4112 56.6664 40.7861 56.6664ZM48.8439 36.6218C48.659 36.8183 48.554 37.07 48.5374 37.329C44.914 42.8313 44.634 44.3243 43.9847 47.7769C43.8685 48.3944 43.7391 49.0812 43.5742 49.8769C43.3021 51.2051 42.1967 52.1331 40.8879 52.1331H40.7861H38.7371L41.736 35.1332H43.052C44.9261 35.1332 46.4508 33.608 46.4508 31.7332V27.1999H49.8496C50.4759 27.1999 50.9826 26.6924 50.9826 26.0666V20.3999C50.9826 18.5251 49.4579 16.9999 47.5837 16.9999V13.5999C47.5837 11.7251 46.0591 10.2 44.1849 10.2H43.052C43.052 8.32515 41.5273 6.79997 39.6531 6.79997H36.2543C35.628 6.79997 35.1213 7.30742 35.1213 7.9333V33.9999C35.1213 34.6257 35.628 35.1332 36.2543 35.1332H39.4362L36.4372 52.1331H31.5397L28.5408 35.1332H31.7225C32.3487 35.1332 32.8554 34.6257 32.8554 33.9999V7.9333C32.8554 7.30742 32.3487 6.79997 31.7225 6.79997H28.3237C26.4495 6.79997 24.9248 8.32515 24.9248 10.2H23.7919C21.9177 10.2 20.393 11.7251 20.393 13.5999V16.9999C18.5189 16.9999 16.9942 18.5251 16.9942 20.3999V28.3332C16.9942 28.9591 17.5009 29.4665 18.1271 29.4665H21.526V31.7332C21.526 33.608 23.0506 35.1332 24.9248 35.1332H26.2407L29.2396 52.1331H27.1907H27.0889C25.7801 52.1331 24.6747 51.2051 24.4025 49.8742C24.2377 49.0812 24.1082 48.3945 23.9921 47.7769C23.3427 44.3243 23.0627 42.8313 19.4394 37.329C19.4228 37.07 19.3177 36.8183 19.1329 36.6218C15.5614 32.8378 13.5954 27.8821 13.5954 22.6666C13.5954 11.418 22.7442 2.26666 33.9884 2.26666C45.2326 2.26666 54.3814 11.418 54.3814 22.6666C54.3814 27.8821 52.4153 32.8378 48.8439 36.6218ZM41.919 19.2666V15.8666C41.919 15.2407 41.4123 14.7333 40.7861 14.7333H37.3872V9.06663H39.6531C40.2782 9.06663 40.7861 9.57521 40.7861 10.2V11.3333C40.7861 11.9592 41.2928 12.4666 41.919 12.4666H44.1849C44.81 12.4666 45.3178 12.9752 45.3178 13.5999V18.1333C45.3178 18.7591 45.8246 19.2666 46.4508 19.2666H47.5837C48.2088 19.2666 48.7167 19.7752 48.7167 20.3999V24.9332H45.3178H40.7861C40.1598 24.9332 39.6531 25.4407 39.6531 26.0666V28.3332H41.919V27.1999H44.1849V31.7332C44.1849 32.3579 43.6771 32.8665 43.052 32.8665H37.3872V16.9999H39.6531V19.2666H41.919ZM22.6589 22.6666C22.0327 22.6666 21.526 23.174 21.526 23.7999V27.1999H19.2601V20.3999C19.2601 19.7752 19.7679 19.2666 20.393 19.2666H21.526C22.1522 19.2666 22.6589 18.7591 22.6589 18.1333V13.5999C22.6589 12.9752 23.1668 12.4666 23.7919 12.4666H24.9248V14.7333H27.1907V11.3333V10.2C27.1907 9.57521 27.6986 9.06663 28.3237 9.06663H30.5895V32.8665H24.9248C24.2997 32.8665 23.7919 32.3579 23.7919 31.7332V28.3332V24.9332H26.0578V22.6666H22.6589Z" fill="#BA206B"/>
</svg>
