<svg width="11" height="22" viewBox="0 0 11 22" fill="none" xmlns="http://www.w3.org/2000/svg">
<path d="M10.5858 0.00457747L7.94737 0C4.98322 0 3.06766 2.12509 3.06766 5.41423V7.91055H0.414863C0.18563 7.91055 0 8.1115 0 8.35937V11.9763C0 12.2241 0.185842 12.4249 0.414863 12.4249H3.06766V21.5514C3.06766 21.7993 3.25329 22 3.48252 22H6.94366C7.17289 22 7.35852 21.799 7.35852 21.5514V12.4249H10.4603C10.6895 12.4249 10.8751 12.2241 10.8751 11.9763L10.8764 8.35937C10.8764 8.24036 10.8326 8.12638 10.7549 8.04215C10.6772 7.95793 10.5714 7.91055 10.4613 7.91055H7.35852V5.79439C7.35852 4.77727 7.58267 4.26094 8.808 4.26094L10.5853 4.26025C10.8144 4.26025 11 4.0593 11 3.81166V0.453169C11 0.205757 10.8146 0.00503522 10.5858 0.00457747Z" fill="#BA206B"/>
</svg>
