<svg width="207" height="22" viewBox="0 0 207 22" fill="none" xmlns="http://www.w3.org/2000/svg">
<path fill-rule="evenodd" clip-rule="evenodd" d="M19.3618 3.35107V0.38299H0V3.35107H7.60778V21.483H11.7794V3.35107H19.3618ZM19.8309 21.5114H24.0406L28.5292 11.0579H35.2557L39.6936 21.483H44.366L34.9451 0.38299H29.3343L19.8309 21.483V21.5114ZM34.0892 8.1295H29.8795L31.9844 3.38512L34.0892 8.1295ZM67.164 0.38299H62.5676L56.9949 7.19311L51.3842 0.38299H46.8259L54.6619 9.90581L45.0127 21.483H49.8817L56.9949 12.6639L64.0892 21.483H68.9582L59.2582 9.87176L67.164 0.38299ZM92.6057 21.483H96.7773V0.38299H92.1746L84.2688 10.5982L76.1665 0.38299H71.6399V21.483H75.8495V5.64948L83.0959 15.0304H85.3149L92.6057 5.64948V21.483ZM99.3449 21.483H103.555L108.075 11.0579H114.751L119.189 21.483H123.861L114.459 0.38299H108.855L99.3449 21.483ZM113.603 8.1295H109.4L111.498 3.38512L113.603 8.1295ZM137.523 3.32269C138.791 3.51737 140.042 3.79622 141.264 4.15693L141.112 1.0867C140.189 0.811176 139.252 0.578191 138.303 0.388665C137.318 0.193924 136.313 0.0893431 135.304 0.0765354L134.67 0.042484H134.125C132.082 0.026215 130.06 0.413772 128.204 1.1775C127.38 1.48578 126.682 2.01297 126.203 2.68788C125.725 3.36279 125.489 4.15289 125.528 4.95145L125.49 5.05927V5.19548C125.45 5.95959 125.651 6.71843 126.07 7.38495C126.49 8.05146 127.11 8.59865 127.861 8.96374C129.744 9.94135 131.763 10.6913 133.865 11.1941C135.237 11.4692 136.532 11.9925 137.669 12.732C138.031 12.9632 138.336 13.2591 138.564 13.601C138.792 13.9428 138.938 14.3233 138.994 14.7183V14.9283C139.001 15.4641 138.871 15.9943 138.614 16.4783C138.357 16.9623 137.979 17.3871 137.511 17.7204C136.27 18.5283 134.757 18.9291 133.225 18.8554L131.057 18.6455L128.565 18.078L127.43 17.7545L126.219 17.3005L125.37 16.9429L124.552 16.5627L124.628 20.2572C126.118 20.838 127.674 21.2719 129.269 21.5511C130.613 21.8114 131.983 21.9502 133.358 21.9654C136.435 21.9654 138.85 21.3033 140.604 19.9791C141.416 19.4251 142.076 18.7132 142.536 17.8972C142.995 17.0812 143.24 16.1824 143.254 15.2688V14.9226L143.216 14.7467V14.5764C143.124 13.6482 142.796 12.7512 142.258 11.9536C141.719 11.156 140.985 10.4789 140.11 9.97391C138.171 8.88997 136.019 8.14474 133.77 7.77765C132.835 7.63391 131.938 7.33973 131.12 6.90936C130.579 6.67332 130.151 6.27025 129.915 5.77434L129.839 5.53031L129.795 5.25223C129.795 4.65634 130.188 4.16828 131.006 3.71427C132.094 3.23556 133.302 3.02032 134.512 3.09001C134.943 3.09001 135.45 3.12406 135.951 3.15811C136.452 3.19216 136.965 3.26027 137.549 3.33404L137.523 3.32269ZM163.631 3.35674V0.38299H144.262V3.35107H151.87V21.483H156.036V3.35107L163.631 3.35674ZM165.691 0.388665V21.483H182.587V18.5547H169.907V11.0579H182.587V8.1295H169.907V3.35107H181.826V0.38299L165.691 0.388665ZM200.287 1.92662C199.121 0.91645 197.289 0.388665 194.835 0.388665H185.287V21.483H189.459V11.0579H193.263C193.574 11.0579 194.239 11.6821 195.247 12.942C196.186 14.077 198.417 17.0564 201.948 21.8349L206.12 21.0631C202.576 16.2903 200.275 13.3222 199.26 12.1361C198.729 11.4933 198.157 10.8775 197.549 10.2917C198.852 10.0884 200.029 9.46702 200.858 8.54379C201.673 7.71611 202.124 6.6509 202.126 5.54733V5.26925C202.095 4.62816 201.917 3.9997 201.601 3.42344C201.286 2.84718 200.841 2.33561 200.294 1.92094L200.287 1.92662ZM197.403 7.43714C196.676 7.95105 195.759 8.20034 194.835 8.13518H189.459V3.35107H194.835C195.791 3.28093 196.74 3.54312 197.485 4.08316C197.746 4.28936 197.956 4.54138 198.104 4.82354C198.251 5.10569 198.332 5.41195 198.341 5.72326V5.82541C198.342 6.11459 198.275 6.4007 198.145 6.66533C197.948 6.9569 197.697 7.21606 197.403 7.43147V7.43714Z" fill="#073273"/>
</svg>
