<svg width="342" height="37" viewBox="0 0 342 37" fill="none" xmlns="http://www.w3.org/2000/svg">
<path fill-rule="evenodd" clip-rule="evenodd" d="M32.123 5.49006V0.565747H0V5.49006H12.622V35.5727H19.5431V5.49006H32.123ZM32.9014 35.6197H39.8856L47.3325 18.2763H58.4925L65.8553 35.5727H73.6074L57.9771 0.565747H48.6684L32.9014 35.5727V35.6197ZM56.5571 13.4179H49.5729L53.065 5.54656L56.5571 13.4179ZM111.431 0.565747H103.806L94.5599 11.8644L85.2512 0.565747H77.6885L90.6891 16.365L74.6802 35.5727H82.7583L94.5599 20.9409L106.33 35.5727H114.408L98.3149 16.3085L111.431 0.565747ZM153.641 35.5727H160.562V0.565747H152.926L139.81 17.5137L126.367 0.565747H118.857V35.5727H125.841V9.30335L137.864 24.8672H141.545L153.641 9.30335V35.5727ZM164.822 35.5727H171.807L179.306 18.2763H190.382L197.745 35.5727H205.497L189.898 0.565747H180.6L164.822 35.5727ZM188.478 13.4179H181.505L184.986 5.54656L188.478 13.4179ZM228.164 5.44299C230.268 5.76598 232.342 6.22861 234.37 6.82707L234.117 1.73327C232.587 1.27615 231.032 0.889604 229.458 0.575163C227.823 0.252069 226.156 0.0785596 224.482 0.0573104L223.431 0.000815944H222.526C219.136 -0.0261759 215.782 0.616817 212.702 1.88392C211.335 2.39537 210.176 3.27004 209.383 4.38978C208.589 5.50951 208.198 6.82036 208.263 8.14524L208.2 8.32414V8.55011C208.133 9.81784 208.466 11.0768 209.162 12.1826C209.858 13.2885 210.888 14.1963 212.134 14.802C215.257 16.424 218.606 17.6682 222.095 18.5023C224.371 18.9587 226.519 19.8271 228.406 21.0539C229.007 21.4375 229.512 21.9284 229.89 22.4956C230.269 23.0628 230.512 23.6939 230.604 24.3494V24.6977C230.616 25.5868 230.4 26.4664 229.973 27.2694C229.547 28.0723 228.921 28.7772 228.143 29.3302C226.085 30.6705 223.574 31.3355 221.032 31.2133L217.435 30.8649L213.301 29.9233L211.419 29.3867L209.41 28.6334L208 28.0402L206.643 27.4094L206.77 33.5389C209.241 34.5026 211.823 35.2224 214.469 35.6856C216.699 36.1175 218.972 36.3477 221.253 36.373C226.358 36.373 230.366 35.2745 233.276 33.0775C234.622 32.1585 235.718 30.9773 236.48 29.6234C237.241 28.2696 237.649 26.7784 237.672 25.2627V24.6883L237.609 24.3964V24.114C237.456 22.574 236.912 21.0857 236.019 19.7624C235.126 18.4392 233.907 17.3158 232.455 16.478C229.238 14.6796 225.669 13.4432 221.937 12.8342C220.386 12.5957 218.897 12.1076 217.54 11.3936C216.642 11.002 215.933 10.3333 215.542 9.51049L215.416 9.10562L215.342 8.64426C215.342 7.65563 215.994 6.8459 217.351 6.09266C219.156 5.29842 221.161 4.94132 223.168 5.05695C223.883 5.05695 224.724 5.11344 225.555 5.16994C226.386 5.22643 227.238 5.33942 228.206 5.46182L228.164 5.44299ZM271.478 5.49948V0.565747H239.345V5.49006H251.967V35.5727H258.877V5.49006L271.478 5.49948ZM274.897 0.575163V35.5727H302.928V30.7142H281.892V18.2763H302.928V13.4179H281.892V5.49006H301.666V0.565747L274.897 0.575163ZM332.295 3.12677C330.36 1.45081 327.32 0.575163 323.25 0.575163H307.409V35.5727H314.33V18.2763H320.641C321.157 18.2763 322.261 19.312 323.933 21.4023C325.49 23.2854 329.193 28.2285 335.051 36.1564L341.972 34.8759C336.093 26.9574 332.274 22.0331 330.591 20.0653C329.709 18.9988 328.761 17.9772 327.752 17.0052C329.915 16.6679 331.866 15.637 333.242 14.1053C334.595 12.7321 335.343 10.9648 335.346 9.13387V8.67251C335.295 7.60888 334.999 6.5662 334.475 5.61013C333.952 4.65406 333.214 3.80532 332.306 3.11735L332.295 3.12677ZM327.51 12.2692C326.303 13.1219 324.782 13.5355 323.25 13.4273H314.33V5.49006H323.25C324.835 5.3737 326.41 5.8087 327.646 6.70467C328.079 7.04678 328.428 7.4649 328.672 7.93303C328.917 8.40115 329.051 8.90926 329.066 9.42575V9.59523C329.068 10.075 328.956 10.5497 328.74 10.9887C328.415 11.4725 327.998 11.9024 327.51 12.2598V12.2692Z" fill="#165DC7"/>
</svg>
